<?xml version="1.0" encoding="utf-8"?>
<!-- Svg Vector Icons : http://www.onlinewebfonts.com/icon -->
<!DOCTYPE svg PUBLIC "-//W3C//DTD SVG 1.1//EN" "http://www.w3.org/Graphics/SVG/1.1/DTD/svg11.dtd">
<svg
        version="1.1"
        xmlns="http://www.w3.org/2000/svg" xmlns:xlink="http://www.w3.org/1999/xlink"
        x="0px" y="0px" viewBox="0 0 1000 1000"
        enable-background="new 0 0 1000 1000"
        xml:space="preserve">
<metadata> Svg Vector Icons : http://www.onlinewebfonts.com/icon </metadata>
<g>
    <path d="M945.5,10H54.5C29.9,10,10,30,10,54.5v890.9C10,970,29.9,990,54.5,990h890.9c24.6,0,44.5-20,44.5-44.5V54.5C990,30,970.1,10,945.5,10z M316.2,522.3c24.6,0,44.5-20,44.5-44.5V99.1h58.6v378.6c0,24.6,19.9,44.5,44.5,44.5h6.5v378.6H307V522.3H316.2z M529.7,522.3h6.5c24.6,0,44.5-20,44.5-44.5V99.1h58.6v378.6c0,24.6,19.9,44.5,44.5,44.5h9.2v378.6H529.7V522.3z M99.1,99.1h100.2v378.6c0,24.6,19.9,44.5,44.5,44.5h3.7v378.6H99.1V99.1z M900.9,900.9H752.4V522.3h3.7c24.6,0,44.5-20,44.5-44.5V99.1h100.2V900.9z"/>
</g>
</svg>